<svg width="24" height="23" viewBox="0 0 24 23" fill="none" xmlns="http://www.w3.org/2000/svg">
<path fill-rule="evenodd" clip-rule="evenodd" d="M12 1.045C5.945 1.045 1.043 5.922 1.043 11.928C1.043 16.338 3.686 20.133 7.49 21.84C7.888 22.019 8.277 21.948 8.581 21.72C8.74912 21.5891 8.88464 21.421 8.97694 21.2289C9.06924 21.0369 9.11581 20.8261 9.113 20.613V20.043L7.756 19.859C7.74595 19.8576 7.73595 19.856 7.726 19.854C6.978 19.708 6.473 19.445 6.103 19.066C5.792 18.747 5.602 18.365 5.441 18.041L5.385 17.928C5.2362 17.6176 5.0737 17.314 4.898 17.018C4.763 16.804 4.658 16.694 4.554 16.625C4.29 16.45 4.036 16.153 4.036 15.782C4.0351 15.6752 4.05796 15.5696 4.10293 15.4727C4.1479 15.3759 4.21385 15.2902 4.296 15.222C4.45106 15.0992 4.6443 15.0348 4.842 15.04C5.064 15.04 5.273 15.108 5.447 15.186C5.625 15.266 5.802 15.372 5.967 15.482C6.369 15.75 6.765 16.067 7.1 16.458C7.449 16.864 7.696 17.122 8.068 17.175C8.374 17.219 8.686 17.22 8.929 17.209C8.96277 17.0166 9.01847 16.8287 9.095 16.649C8.79821 16.5797 8.50544 16.4943 8.218 16.393C7.564 16.161 6.835 15.8 6.345 15.253C5.807 14.651 5.474 14.114 5.288 13.486C5.107 12.874 5.077 12.211 5.077 11.395C5.077 10.145 5.618 9.092 6.024 8.533C5.86801 8.0436 5.7559 7.54128 5.689 7.032C5.64469 6.71083 5.64503 6.38508 5.69 6.064C5.74 5.771 5.865 5.411 6.194 5.194C6.511 4.983 6.883 4.992 7.173 5.046C7.474 5.103 7.787 5.228 8.075 5.371C8.544 5.603 9.01 5.913 9.359 6.176C9.961 5.999 11.026 5.771 11.989 5.75H12.011C12.975 5.771 13.992 5.999 14.579 6.175C14.929 5.913 15.394 5.602 15.862 5.371C16.15 5.228 16.462 5.103 16.764 5.046C17.054 4.992 17.426 4.983 17.744 5.193C18.072 5.411 18.198 5.771 18.247 6.064C18.298 6.369 18.286 6.71 18.247 7.032C18.1804 7.54125 18.0686 8.04356 17.913 8.533C18.319 9.093 18.86 10.146 18.86 11.395C18.86 12.211 18.83 12.874 18.65 13.485C18.463 14.115 18.13 14.651 17.592 15.253C17.102 15.8 16.373 16.161 15.719 16.393C15.3718 16.515 15.0171 16.6142 14.657 16.69C14.78 17.062 14.824 17.363 14.824 17.536V20.626C14.824 21.096 15.043 21.497 15.354 21.731C15.656 21.96 16.044 22.031 16.442 21.857C20.282 20.165 22.956 16.36 22.956 11.927C22.956 5.922 18.056 1.045 12 1.045ZM9.476 18.21C9.216 18.247 9.475 18.21 9.475 18.21H9.472L9.464 18.212L9.435 18.216C9.28647 18.2335 9.13738 18.2458 8.988 18.253C8.6321 18.2715 8.27525 18.2572 7.922 18.21C7.131 18.098 6.65 17.538 6.339 17.174L6.309 17.14C6.20732 17.022 6.09809 16.9108 5.982 16.807C6.085 16.997 6.192 17.209 6.307 17.437L6.317 17.457L6.368 17.561C6.543 17.909 6.658 18.141 6.849 18.335C7.035 18.525 7.325 18.709 7.911 18.825L9.705 19.068C9.8303 19.085 9.94518 19.1468 10.0283 19.2421C10.1114 19.3374 10.1572 19.4596 10.157 19.586V20.613C10.157 21.413 9.782 22.126 9.207 22.558C8.90511 22.7887 8.54598 22.9326 8.16833 22.9742C7.79069 23.0157 7.40885 22.9535 7.064 22.794C2.902 20.927 0 16.77 0 11.928C0 5.336 5.377 0 12 0C18.623 0 24 5.336 24 11.928C24 16.795 21.061 20.963 16.863 22.814C16.5179 22.9704 16.1367 23.0301 15.7603 22.9866C15.3839 22.9431 15.0264 22.798 14.726 22.567C14.429 22.3384 14.1891 22.044 14.0249 21.7071C13.8608 21.3702 13.777 20.9998 13.78 20.625V17.535C13.78 17.465 13.731 17.061 13.458 16.518C13.4203 16.4427 13.4013 16.3594 13.4027 16.2753C13.404 16.1911 13.4256 16.1084 13.4656 16.0344C13.5056 15.9603 13.5629 15.897 13.6326 15.8497C13.7023 15.8025 13.7824 15.7727 13.866 15.763C14.3787 15.6987 14.8829 15.5794 15.37 15.407C15.964 15.197 16.497 14.909 16.814 14.555C17.285 14.029 17.52 13.625 17.649 13.188C17.783 12.735 17.817 12.208 17.817 11.395C17.817 10.254 17.217 9.295 16.941 8.986C16.8783 8.91617 16.8356 8.83077 16.8173 8.73875C16.799 8.64673 16.8058 8.55149 16.837 8.463C17.0148 7.95917 17.1404 7.43845 17.212 6.909C17.244 6.634 17.246 6.404 17.218 6.238C17.2117 6.17731 17.1934 6.11848 17.164 6.065C17.0952 6.05309 17.0246 6.05616 16.957 6.074C16.787 6.106 16.57 6.186 16.324 6.308C15.834 6.55 15.324 6.908 15.008 7.164C14.9383 7.22054 14.8552 7.25808 14.7667 7.27297C14.6782 7.28787 14.5874 7.27961 14.503 7.249C13.6933 6.98415 12.8511 6.83172 12 6.796C10.993 6.82 9.831 7.106 9.434 7.249C9.34964 7.27961 9.2588 7.28787 9.17031 7.27297C9.08182 7.25808 8.99869 7.22054 8.929 7.164C8.52034 6.835 8.07942 6.5482 7.613 6.308C7.41271 6.20282 7.19959 6.12416 6.979 6.074C6.91177 6.0563 6.84152 6.05323 6.773 6.065C6.74361 6.11847 6.72524 6.1773 6.719 6.238C6.691 6.404 6.693 6.634 6.725 6.909C6.79707 7.43836 6.92271 7.95903 7.1 8.463C7.163 8.643 7.124 8.843 6.996 8.986C6.72 9.295 6.12 10.254 6.12 11.395C6.12 12.207 6.154 12.735 6.288 13.188C6.418 13.625 6.652 14.028 7.122 14.555C7.44 14.909 7.972 15.197 8.567 15.407C9.05377 15.5793 9.55768 15.6986 10.07 15.763C10.1754 15.7743 10.2749 15.8174 10.3552 15.8867C10.4354 15.9559 10.4928 16.0479 10.5195 16.1505C10.5462 16.2531 10.541 16.3614 10.5047 16.461C10.4683 16.5606 10.4025 16.6467 10.316 16.708C10.151 16.826 10.042 17.038 9.981 17.283C9.94951 17.4091 9.93075 17.5381 9.925 17.668V17.687C9.92628 17.8138 9.88144 17.9367 9.79885 18.0329C9.71626 18.1291 9.60152 18.1921 9.476 18.21Z" fill="#48D6BC"/>
<path fill-rule="evenodd" clip-rule="evenodd" d="M12 1.045C5.945 1.045 1.043 5.922 1.043 11.928C1.043 16.338 3.686 20.133 7.49 21.84C7.888 22.019 8.277 21.948 8.581 21.72C8.74912 21.5891 8.88464 21.421 8.97694 21.2289C9.06924 21.0369 9.11581 20.8261 9.113 20.613V20.043L7.756 19.859C7.74595 19.8576 7.73595 19.856 7.726 19.854C6.978 19.708 6.473 19.445 6.103 19.066C5.792 18.747 5.602 18.365 5.441 18.041L5.385 17.928C5.2362 17.6176 5.0737 17.314 4.898 17.018C4.763 16.804 4.658 16.694 4.554 16.625C4.29 16.45 4.036 16.153 4.036 15.782C4.0351 15.6752 4.05796 15.5696 4.10293 15.4727C4.1479 15.3759 4.21385 15.2902 4.296 15.222C4.45106 15.0992 4.6443 15.0348 4.842 15.04C5.064 15.04 5.273 15.108 5.447 15.186C5.625 15.266 5.802 15.372 5.967 15.482C6.369 15.75 6.765 16.067 7.1 16.458C7.449 16.864 7.696 17.122 8.068 17.175C8.374 17.219 8.686 17.22 8.929 17.209C8.96277 17.0166 9.01847 16.8287 9.095 16.649C8.79821 16.5797 8.50544 16.4943 8.218 16.393C7.564 16.161 6.835 15.8 6.345 15.253C5.807 14.651 5.474 14.114 5.288 13.486C5.107 12.874 5.077 12.211 5.077 11.395C5.077 10.145 5.618 9.092 6.024 8.533C5.86801 8.0436 5.7559 7.54128 5.689 7.032C5.64469 6.71083 5.64503 6.38508 5.69 6.064C5.74 5.771 5.865 5.411 6.194 5.194C6.511 4.983 6.883 4.992 7.173 5.046C7.474 5.103 7.787 5.228 8.075 5.371C8.544 5.603 9.01 5.913 9.359 6.176C9.961 5.999 11.026 5.771 11.989 5.75H12.011C12.975 5.771 13.992 5.999 14.579 6.175C14.929 5.913 15.394 5.602 15.862 5.371C16.15 5.228 16.462 5.103 16.764 5.046C17.054 4.992 17.426 4.983 17.744 5.193C18.072 5.411 18.198 5.771 18.247 6.064C18.298 6.369 18.286 6.71 18.247 7.032C18.1804 7.54125 18.0686 8.04356 17.913 8.533C18.319 9.093 18.86 10.146 18.86 11.395C18.86 12.211 18.83 12.874 18.65 13.485C18.463 14.115 18.13 14.651 17.592 15.253C17.102 15.8 16.373 16.161 15.719 16.393C15.3718 16.515 15.0171 16.6142 14.657 16.69C14.78 17.062 14.824 17.363 14.824 17.536V20.626C14.824 21.096 15.043 21.497 15.354 21.731C15.656 21.96 16.044 22.031 16.442 21.857C20.282 20.165 22.956 16.36 22.956 11.927C22.956 5.922 18.056 1.045 12 1.045ZM9.476 18.21C9.216 18.247 9.475 18.21 9.475 18.21H9.472L9.464 18.212L9.435 18.216C9.28647 18.2335 9.13738 18.2458 8.988 18.253C8.6321 18.2715 8.27525 18.2572 7.922 18.21C7.131 18.098 6.65 17.538 6.339 17.174L6.309 17.14C6.20732 17.022 6.09809 16.9108 5.982 16.807C6.085 16.997 6.192 17.209 6.307 17.437L6.317 17.457L6.368 17.561C6.543 17.909 6.658 18.141 6.849 18.335C7.035 18.525 7.325 18.709 7.911 18.825L9.705 19.068C9.8303 19.085 9.94518 19.1468 10.0283 19.2421C10.1114 19.3374 10.1572 19.4596 10.157 19.586V20.613C10.157 21.413 9.782 22.126 9.207 22.558C8.90511 22.7887 8.54598 22.9326 8.16833 22.9742C7.79069 23.0157 7.40885 22.9535 7.064 22.794C2.902 20.927 0 16.77 0 11.928C0 5.336 5.377 0 12 0C18.623 0 24 5.336 24 11.928C24 16.795 21.061 20.963 16.863 22.814C16.5179 22.9704 16.1367 23.0301 15.7603 22.9866C15.3839 22.9431 15.0264 22.798 14.726 22.567C14.429 22.3384 14.1891 22.044 14.0249 21.7071C13.8608 21.3702 13.777 20.9998 13.78 20.625V17.535C13.78 17.465 13.731 17.061 13.458 16.518C13.4203 16.4427 13.4013 16.3594 13.4027 16.2753C13.404 16.1911 13.4256 16.1084 13.4656 16.0344C13.5056 15.9603 13.5629 15.897 13.6326 15.8497C13.7023 15.8025 13.7824 15.7727 13.866 15.763C14.3787 15.6987 14.8829 15.5794 15.37 15.407C15.964 15.197 16.497 14.909 16.814 14.555C17.285 14.029 17.52 13.625 17.649 13.188C17.783 12.735 17.817 12.208 17.817 11.395C17.817 10.254 17.217 9.295 16.941 8.986C16.8783 8.91617 16.8356 8.83077 16.8173 8.73875C16.799 8.64673 16.8058 8.55149 16.837 8.463C17.0148 7.95917 17.1404 7.43845 17.212 6.909C17.244 6.634 17.246 6.404 17.218 6.238C17.2117 6.17731 17.1934 6.11848 17.164 6.065C17.0952 6.05309 17.0246 6.05616 16.957 6.074C16.787 6.106 16.57 6.186 16.324 6.308C15.834 6.55 15.324 6.908 15.008 7.164C14.9383 7.22054 14.8552 7.25808 14.7667 7.27297C14.6782 7.28787 14.5874 7.27961 14.503 7.249C13.6933 6.98415 12.8511 6.83172 12 6.796C10.993 6.82 9.831 7.106 9.434 7.249C9.34964 7.27961 9.2588 7.28787 9.17031 7.27297C9.08182 7.25808 8.99869 7.22054 8.929 7.164C8.52034 6.835 8.07942 6.5482 7.613 6.308C7.41271 6.20282 7.19959 6.12416 6.979 6.074C6.91177 6.0563 6.84152 6.05323 6.773 6.065C6.74361 6.11847 6.72524 6.1773 6.719 6.238C6.691 6.404 6.693 6.634 6.725 6.909C6.79707 7.43836 6.92271 7.95903 7.1 8.463C7.163 8.643 7.124 8.843 6.996 8.986C6.72 9.295 6.12 10.254 6.12 11.395C6.12 12.207 6.154 12.735 6.288 13.188C6.418 13.625 6.652 14.028 7.122 14.555C7.44 14.909 7.972 15.197 8.567 15.407C9.05377 15.5793 9.55768 15.6986 10.07 15.763C10.1754 15.7743 10.2749 15.8174 10.3552 15.8867C10.4354 15.9559 10.4928 16.0479 10.5195 16.1505C10.5462 16.2531 10.541 16.3614 10.5047 16.461C10.4683 16.5606 10.4025 16.6467 10.316 16.708C10.151 16.826 10.042 17.038 9.981 17.283C9.94951 17.4091 9.93075 17.5381 9.925 17.668V17.687C9.92628 17.8138 9.88144 17.9367 9.79885 18.0329C9.71626 18.1291 9.60152 18.1921 9.476 18.21Z" fill="black" fill-opacity="0.2"/>
</svg>
